# xmcd
#
# Track frame offsets:
#	150
#	5152
#	17187
#	31997
#	47287
#	60562
#	75687
#	93262
#	109210
#	122770
#	135925
#
# Disc length: 2026
#
# Revision: 1
# Processed by: cddbd v1.5.1PL0 Copyright (c) Steve Scherf et al.
# Submitted via: VisiTrax 2.9.5.180 - For more info visit www.synapsa.com
# Normalized: r0:DSETVAR1
#
DISCID=8107e80b
DTITLE=Various Artist - CDX 215 June 1999
DYEAR=1999
DGENRE=
TTITLE0=Oak Ridge Boys - Baby when your heart breaks down
TTITLE1=David Allan Coe - Drink Canada dry
TTITLE2=Aaron Tippin - Her
TTITLE3=Montgomery Gentry - Lonely and gone
TTITLE4=Michael Peterson - Sure feels real good
TTITLE5=Rebecca Lynn Howard - When my dreams come true
TTITLE6=Bryan White - You're still beautiful to me
TTITLE7=Shania Twain - You've got a way
TTITLE8=Beverly Ellis - A woman might
TTITLE9=Jody Jenkins - Walkin' the floor (over her again)
TTITLE10=Frankie Leigh - You don't know
EXTD=
EXTT0=
EXTT1=
EXTT2=
EXTT3=
EXTT4=
EXTT5=
EXTT6=
EXTT7=
EXTT8=
EXTT9=
EXTT10=
PLAYORDER=
